<svg width="64" height="77" viewBox="0 0 64 77" fill="none" xmlns="http://www.w3.org/2000/svg">
<path d="M43.4742 20.0599C43.7939 20.0662 44.8438 18.9187 45.2007 18.6523C45.9845 18.0672 46.4468 17.8002 47.4507 17.9458C48.4007 18.0837 48.9896 18.163 49.5638 18.9321C50.0309 19.5577 49.8387 20.5545 50.3029 21.0509C50.7857 21.5672 51.1522 22.2166 51.791 22.5037C52.1882 22.6822 53.478 23.3831 53.4294 23.9511C53.354 24.8327 53.3524 25.851 53.2865 26.6215C53.1566 28.1402 53.646 28.4296 54.3243 29.5856C55.0733 30.8621 56.1744 31.7674 56.9435 33.0781C57.3661 33.7983 57.2565 34.6676 57.136 35.4982C57.0014 36.4256 57.0921 37.486 56.9757 38.2884C56.7671 39.7256 57.7499 42.3988 56.2736 43.5008C54.8987 44.5273 53.1785 44.0361 51.5982 44.2495C50.6269 44.3806 51.1071 45.9625 50.5551 46.2863C49.828 46.713 49.4809 47.1923 49.2028 47.925C49.0107 48.4309 47.9682 49.8309 48.4916 50.3906C48.9503 50.881 49.0429 52.4922 48.9477 53.1479C48.8321 53.9447 47.6952 53.9646 47.5063 54.6513C47.3075 55.3739 46.7229 56.086 46.4439 56.8212C45.7839 58.5598 45.0559 60.0346 43.4634 60.9691C42.1807 61.7217 40.7222 62.3596 39.3389 62.885C38.2084 63.3144 36.7181 65.0735 35.4996 64.8966C33.5779 64.6178 31.8082 64.3379 30.0276 64.5783C28.428 64.7942 27.0439 65.8714 25.3629 65.6275C24.8837 65.5579 24.4045 65.4884 23.9253 65.4188C23.4339 65.3475 23.4397 64.9115 23.0364 64.8005C22.7884 64.7323 21.5646 63.283 21.5679 63.1195C21.5776 62.6269 20.6951 61.8232 20.3998 61.4278C19.7199 60.517 19.1258 59.5622 18.4277 58.6271C17.0469 56.7774 16.0387 56.4456 13.7767 56.1173C11.9879 55.8577 10.2711 55.6298 9.98372 53.5009C9.87399 52.6881 9.46867 51.8547 9.40157 50.9564C9.34421 50.1884 9.42907 49.2761 8.9388 48.6194C8.52111 48.0599 8.32196 47.2526 7.86653 46.6425C7.43897 46.0698 6.97543 45.3863 6.88357 44.7058C6.66915 43.1175 6.87592 40.6719 8.04959 39.5743C9.0213 38.6655 10.2899 37.6089 11.1151 36.5261C11.4787 36.049 11.825 34.3341 12.199 34.1146C12.718 33.8101 13.5679 32.9638 14.0172 32.5436C15.1145 31.5174 16.5549 31.3019 17.6913 30.4536C17.9818 30.2366 18.298 30.0272 18.5753 29.7936C18.9699 29.4612 18.9906 28.876 19.2932 28.5929C19.9011 28.0244 20.1715 26.7624 20.9133 26.3272C21.5321 25.9641 21.7322 24.7507 22.4242 24.3446C22.7358 24.1618 23.1325 23.8634 23.3845 23.6277C23.773 23.2644 24.3172 23.4969 24.715 23.2635C26.1615 22.4147 28.4298 25.0699 29.9929 23.6081C30.4443 23.186 31.4289 22.6559 32.0159 22.3115C32.7907 21.8569 33.3334 21.1261 34.0456 20.5945C35.7412 19.3286 37.1033 19.7853 39.0087 19.6429C39.9999 19.5689 40.3957 19.1239 41.5071 19.2852C42.4162 19.4171 42.8475 20.2136 43.679 20.3343" stroke="black" stroke-linecap="round"/>
<path d="M41.8284 36.4566C42.7265 36.5869 45.8084 38.2221 46.5683 37.5114C46.8043 37.2907 47.3472 37.3454 47.6592 37.1125C47.9773 36.875 48.1137 36.6069 48.3913 36.376C48.9552 35.907 49.3657 34.7417 49.2659 34.0021C49.0717 32.5638 46.3378 32.0987 45.3566 32.3746C44.296 32.6728 41.8588 34.895 43.3704 35.9464" stroke="black" stroke-linecap="round"/>
<path d="M42.7938 33.1723C42.3752 36.0568 39.6912 35.9025 37.1903 35.5395C34.9315 35.2117 33.8968 32.1042 34.1893 30.0887C34.2398 29.7408 34.2378 28.447 34.5832 28.311C34.9346 28.1727 36.0393 28.0996 36.2142 27.9361C36.8128 27.3763 39.2056 28.4164 39.7909 28.5775C41.5587 29.0638 42.2875 31.9866 42.7591 33.4119" stroke="black" stroke-linecap="round"/>
<path d="M34.3419 30.7221C33.9299 32.2196 30.7385 32.6457 29.5615 32.4749C27.8087 32.2205 26.1723 31.3847 26.4697 29.3351C26.6346 28.1989 26.729 27.6947 27.5536 26.9236C27.8119 26.6821 30.2499 27.0359 30.4289 27.3408C30.7517 27.8909 31.6869 28.1515 32.1282 28.7427C32.544 29.2997 33.172 29.944 33.3834 30.583" stroke="black" stroke-linecap="round"/>
<path d="M34.725 28.0872C35.9067 28.1267 36.2028 26.3332 36.3229 25.5056C36.5501 23.9405 35.0996 23.9825 33.8785 23.8053C33.0015 23.678 31.8862 24.2223 31.5075 25.065C30.8741 26.4742 31.6515 27.0706 32.0199 28.1839" stroke="black" stroke-linecap="round"/>
<path d="M28.5642 26.7036C27.8339 26.5977 26.9368 26.5065 27.0261 25.5018C27.1119 24.5361 26.6508 24.2539 27.741 23.9474C29.0781 23.5714 30.7353 23.9932 31.7872 24.7249" stroke="black" stroke-linecap="round"/>
<path d="M36.0348 24.1176C36.8964 24.1346 37.9029 21.9856 37.001 21.5802C36.2569 21.2458 34.5662 20.5403 33.9865 21.3738" stroke="black" stroke-linecap="round"/>
<path d="M31.3434 24.4154C31.4563 24.4177 31.5575 22.4695 31.9307 22.0542" stroke="black" stroke-linecap="round"/>
<path d="M37.2712 22.3397C38.0277 22.4495 39.1689 22.8483 39.8218 22.4652C40.7257 21.9348 40.2068 21.1607 39.7668 20.6903C38.9983 19.8686 35.7855 19.0913 35.563 20.6239" stroke="black" stroke-linecap="round"/>
<path d="M38.7083 22.5486C41.4926 22.9527 42.2004 28.193 38.697 27.6846" stroke="black" stroke-linecap="round"/>
<path d="M41.5451 24.9176C41.5344 25.4608 43.0337 25.3594 43.3421 25.1784C43.6844 24.9776 44.1294 23.9682 44.1845 23.5881C44.3078 22.7388 43.4722 21.0904 43.1989 20.2647" stroke="black" stroke-linecap="round"/>
<path d="M50.4217 21.0681C50.0239 23.8094 43.9206 23.7201 44.2578 21.3968" stroke="black" stroke-linecap="round"/>
<path d="M47.6429 23.3561C47.5184 24.2141 47.5498 25.0261 47.5348 25.7869C47.5262 26.2206 48.5432 27.1565 48.9183 27.211C50.5232 27.4438 51.6759 28.1766 52.806 26.5519" stroke="black" stroke-linecap="round"/>
<path d="M47.35 32.1209C48.1549 32.2377 48.8038 30.8739 49.0718 30.2776C49.2784 29.8181 49.2542 29.1148 49.3266 28.6156C49.4145 28.0096 48.956 27.7976 49.0386 27.2283" stroke="black" stroke-linecap="round"/>
<path d="M47.8447 25.3428C47.8727 23.9254 46.094 23.5974 45.2477 23.0087" stroke="black" stroke-linecap="round"/>
<path d="M41.9204 25.706C40.9792 25.6874 40.9293 27.4786 40.8365 28.1175C40.7245 28.8896 41.3553 29.8474 41.4625 30.6412C41.5574 31.3443 43.5219 31.5147 43.9002 31.9192C44.6807 32.7538 45.8449 32.0488 46.6664 31.777" stroke="black" stroke-linecap="round"/>
<path d="M43.8574 32.5928C43.6034 32.5229 43.421 32.1573 43.2082 32.0093" stroke="black" stroke-linecap="round"/>
<path d="M48.885 35.0352C49.6248 35.2387 50.1184 36.392 50.8676 36.5461C51.8802 36.7544 52.571 37.1048 53.6344 36.9612C55.275 36.7397 56.2883 34.5952 56.4903 33.2031" stroke="black" stroke-linecap="round"/>
<path d="M51.5862 36.6501C50.379 36.4749 49.8614 37.2027 49.6308 38.3235C49.5428 38.7512 49.2606 39.189 49.1826 39.7263C49.1102 40.2247 49.4211 40.6231 49.4858 41.1023C49.5546 41.6117 50.6251 42.7476 51.0242 43.0517C51.9908 43.7884 52.9728 43.9461 54.1719 44.1201" stroke="black" stroke-linecap="round"/>
<path d="M51.1266 43.1887C50.1645 43.1565 49.4127 43.9186 48.3519 43.7646C47.3292 43.6162 46.6217 43.5774 45.9992 42.7436C44.9424 41.328 44.8248 39.4101 45.0784 37.6626" stroke="black" stroke-linecap="round"/>
<path d="M45.0746 39.3743C44.7555 40.5994 40.4439 41.2703 39.8169 40.2016C39.5934 39.8208 39.2615 39.9408 39.1871 39.3898C39.1549 39.1509 38.9426 38.4874 38.8187 38.2762C38.4801 37.6991 38.1369 36.6052 38.2342 35.9352" stroke="black" stroke-linecap="round"/>
<path d="M33.1051 32.5002C33.0883 33.0038 33.4824 33.2721 33.4105 33.7678C33.3351 34.2869 33.2598 34.8061 33.1845 35.3252C33.0354 36.3521 32.8451 36.9368 32.1179 37.6169C30.8635 38.7901 28.6103 38.4535 27.0148 38.2219C24.8559 37.9086 23.7047 36.5872 24.0274 34.3633C24.3119 32.4031 25.7679 32.0508 26.7749 30.603" stroke="black" stroke-linecap="round"/>
<path d="M23.719 34.8082C23.4289 35.8629 19.176 35.4268 18.2739 35.2412C16.8527 34.9489 15.9815 31.2097 17.4622 30.7197" stroke="black" stroke-linecap="round"/>
<path d="M51.5363 43.7374C51.3241 45.1994 51.2501 45.9925 50.0455 46.8918C49.2593 47.4787 48.0762 47.8017 47.4342 48.4021C47.1417 48.6757 45.921 48.3625 45.7134 48.0844C45.4431 47.7223 45.2133 46.8481 45.2816 46.3772C45.4413 45.2768 44.9627 43.9736 46.435 43.4864" stroke="black" stroke-linecap="round"/>
<path d="M47.2667 54.6159C47.0863 55.2719 45.5009 54.3331 45.2649 54.0808C44.8124 53.597 44.6123 52.6771 44.7044 52.0422C44.9892 50.0797 45.723 49.6299 46.7332 48.1776" stroke="black" stroke-linecap="round"/>
<path d="M45.0443 53.0705C44.2326 52.9527 43.6335 52.3765 42.7178 52.2436C41.6507 52.0887 41.2242 52.1117 40.3373 52.6321C39.1267 53.3424 37.7715 56.067 38.5463 57.3875C39.1704 58.4512 40.4241 60.6404 41.7057 60.9041C43.5499 61.2834 45.1511 60.7639 45.4426 58.7552" stroke="black" stroke-linecap="round"/>
<path d="M39.1552 53.1945C39.0013 53.7539 38.8381 52.4611 38.8129 52.275C38.7408 51.7406 38.9809 51.0238 39.0585 50.4894C39.2267 49.3299 39.1623 48.4118 40.24 47.7794C40.6736 47.525 43.2425 46.8811 43.6271 47.2923C44.1265 47.8263 44.7471 48.7749 45.3615 49.2022" stroke="black" stroke-linecap="round"/>
<path d="M41.7009 47.4477C40.6717 47.2983 40.4711 47.5907 39.587 46.8419C38.8526 46.2199 39.3059 45.1082 38.814 44.5823C38.3051 44.0381 39.2158 42.4526 39.3163 41.964C39.5515 40.8208 40.8381 41.2655 41.4591 40.6848C41.7493 40.4134 43.4424 40.3609 43.8223 40.4161C44.7157 40.5457 45.2496 41.1624 45.1711 42.0797C45.0914 43.0108 45.502 47.2654 43.7221 47.0071" stroke="black" stroke-linecap="round"/>
<path d="M38.9729 42.6484C38.1958 42.6331 37.2856 43.6313 36.4766 43.7405C35.598 43.8591 33.7978 43.9791 33.0747 43.206C31.4292 41.4465 31.3096 39.8222 31.6571 37.4277" stroke="black" stroke-linecap="round"/>
<path d="M18.1041 34.7268C17.8467 36.5003 18.3991 40.8114 15.5617 41.1944C14.8762 41.287 12.4494 41.4678 11.8854 40.8648C11.0443 39.9655 10.1793 38.7605 10.3597 37.5173" stroke="black" stroke-linecap="round"/>
<path d="M17.0648 40.2028C16.8337 41.7948 16.3702 43.8298 17.8495 44.9106C19.0401 45.7806 21.0431 46.3246 22.3834 45.3239C23.1632 44.7418 25.5695 43.5245 25.791 42.4477C25.988 41.4901 27.2928 38.3485 26.2468 37.6209" stroke="black" stroke-linecap="round"/>
<path d="M25.277 42.6178C24.9435 44.9159 26.9273 45.793 28.8132 46.0667C30.7218 46.3437 32.2982 44.8112 32.5694 42.9421" stroke="black" stroke-linecap="round"/>
<path d="M30.4751 45.5734C30.332 46.0935 29.6394 46.2746 29.5476 46.9067C29.445 47.6141 29.1237 48.1421 29.0125 48.9086C28.8428 50.0778 29.7998 50.996 30.5032 51.7481C32.4322 53.8107 35.0264 53.8629 37.4277 52.454C38.1665 52.0205 39.0364 50.3137 39.1975 49.5304C39.3429 48.8233 39.4067 48.0885 39.5104 47.3739C39.5935 46.8017 38.9904 46.2352 38.7761 45.6907C38.6059 45.2585 38.0614 44.9677 37.9782 44.3517C37.8792 43.6181 36.9487 43.5771 36.4032 43.4979C35.4534 43.3601 33.6482 43.6663 33.0797 44.4835" stroke="black" stroke-linecap="round"/>
<path d="M29.0956 50.0222C28.4463 52.3821 24.7437 51.3479 23.0669 51.1045C21.0174 50.8071 20.4628 46.862 21.9606 45.6161C23.484 44.3488 25.6592 42.6846 27.334 44.928C27.7102 45.432 28.1399 45.6134 28.3659 46.2466C28.5138 46.6612 28.7078 47.2694 28.9031 47.6022C29.2802 48.2449 28.5179 50.6314 28.4077 51.3903" stroke="black" stroke-linecap="round"/>
<path d="M17.7404 43.9705C16.7283 43.8236 16.3566 43.682 15.7038 44.5176C15.2823 45.0571 14.584 45.4901 14.4826 46.1888C14.2189 48.0063 14.015 49.1762 15.2682 50.5162C15.9746 51.2716 18.4678 52.9693 19.6622 52.2684C20.1519 51.9811 20.6704 51.633 21.1994 51.3226C21.6083 51.0827 21.5989 49.4126 21.6669 48.944" stroke="black" stroke-linecap="round"/>
<path d="M26.2159 51.3171C26.0433 52.5063 27.58 53.5984 26.2886 54.5625C25.5019 55.1498 24.225 55.9212 23.2442 55.7789C21.9606 55.5926 20.526 55.8737 19.1014 55.667C17.9897 55.5056 17.8018 52.5426 19.3989 52.7744" stroke="black" stroke-linecap="round"/>
<path d="M14.4143 46.6683C14.0765 48.9962 11.1162 48.0969 9.61843 47.6849C8.19904 47.2944 6.94451 45.1185 6.51118 43.8089" stroke="black" stroke-linecap="round"/>
<path d="M18.0304 52.0868C18.0189 52.6693 19.257 54.2167 18.2469 54.8093C17.562 55.2113 17.0042 56.0695 16.1717 56.4654" stroke="black" stroke-linecap="round"/>
<path d="M20.2486 55.3442C20.9819 55.4506 22.2814 55.4696 22.7885 56.0118C23.3716 56.6352 23.3242 57.4477 23.7084 58.1025C24.0843 58.7432 23.399 60.06 22.9879 60.4444C22.5723 60.8331 21.5792 61.2056 21.2962 61.6124" stroke="black" stroke-linecap="round"/>
<path d="M28.4465 64.6072C30.2662 64.8712 31.3189 61.5976 29.4472 61.0827C28.5423 60.8337 27.8497 60.1169 26.7961 59.964C25.85 59.8267 24.837 59.9243 24.0059 59.8037" stroke="black" stroke-linecap="round"/>
<path d="M23.8438 55.8657C23.7296 56.6523 23.2796 57.2381 23.5463 57.9156C23.8968 58.806 24.3152 58.8054 24.8556 59.3832C25.7943 60.387 27.7899 60.7191 29.1463 60.536C30.6631 60.3312 30.555 57.6168 29.714 56.7176C29.3858 56.3666 29.4775 55.4686 29.0579 54.9642C28.452 54.2359 27.6794 54.2205 26.7923 54.0917" stroke="black" stroke-linecap="round"/>
<path d="M29.9735 55.7759C31.677 56.0231 32.2763 55.0797 32.5124 53.4532" stroke="black" stroke-linecap="round"/>
<path d="M30.3823 56.3252C29.9422 59.3582 37.8579 60.4451 38.1849 58.1914" stroke="black" stroke-linecap="round"/>
<path d="M34.3126 59.5864C34.1144 60.952 32.8638 61.7795 33.9697 63.2608C34.474 63.9364 36.938 65.0968 37.1455 63.6673" stroke="black" stroke-linecap="round"/>
<path d="M30.5369 63.6874C31.2306 63.8782 31.6424 64.3371 32.504 64.4622C33.3276 64.5817 33.8956 64.7369 34.4053 64.0041" stroke="black" stroke-linecap="round"/>
<path d="M55.0426 44.6592C55.1756 44.6958 55.3671 45.2829 55.3962 45.4111C55.4772 45.7682 55.441 46.1288 55.5214 46.4835C55.6396 47.0044 55.4165 47.6111 55.3181 48.0898C55.2328 48.504 54.9411 49.056 54.6825 49.3954C54.5171 49.6124 54.419 49.91 54.2198 50.1015C54.0453 50.2692 53.7828 50.5689 53.6656 50.7779C53.5558 50.9736 53.2328 51.2487 53.0546 51.3898C52.8798 51.5283 52.731 51.7396 52.5416 51.8507C52.2137 52.0431 51.9088 52.2928 51.5981 52.5003C51.3041 52.6966 50.8212 52.9275 50.4717 52.9746C50.2124 53.0097 49.4648 53.139 49.3206 53.3463" stroke="black" stroke-linecap="round"/>
<path d="M45.6598 59.7151C45.8459 59.7421 46.0011 59.8241 46.2048 59.8537C46.2951 59.8668 46.7214 59.8426 46.7794 59.7883C46.8856 59.689 47.1533 59.7911 47.2708 59.6812C47.3238 59.6316 47.6698 59.4968 47.7486 59.4862C47.9934 59.4531 48.3643 59.2124 48.5543 59.0347C48.6664 58.9298 48.8361 58.8714 48.8991 58.7311C48.939 58.6423 49.151 58.3168 49.2303 58.2703C49.3242 58.2152 49.4288 57.9274 49.4436 57.8254C49.4744 57.6134 49.6031 57.4653 49.6447 57.2597C49.7252 56.8615 49.8189 56.469 49.8805 56.0447C49.9373 55.6531 50.08 55.2535 50.1163 54.8298C50.1309 54.6595 50.0589 54.4792 50.0758 54.2886C50.0931 54.094 49.9511 53.9182 49.9772 53.7389" stroke="black" stroke-linecap="round"/>
<path d="M34.3011 19.9373C34.3346 19.7068 33.8088 19.2062 33.6198 19.1213C33.4323 19.037 33.2653 18.8489 33.0382 18.8022C32.8366 18.7608 32.5335 18.6184 32.3664 18.5131C32.0096 18.2882 31.268 18.1739 30.8404 18.1892C30.3841 18.2055 29.7596 18.1882 29.3262 18.3528C28.858 18.5306 28.2406 18.4888 27.8534 18.8694C27.6039 19.1146 27.1486 19.2979 26.8461 19.48C26.6274 19.6115 26.4432 19.7836 26.2452 19.9314C25.8186 20.2499 25.4849 20.7889 25.1776 21.2306C24.9449 21.5652 24.6532 22.0664 24.5968 22.4549" stroke="black" stroke-linecap="round"/>
<path d="M45.4358 17.8052C45.5917 17.6739 45.5912 17.2899 45.5007 17.1306C45.3568 16.8775 45.0212 16.7338 44.751 16.6946C44.2266 16.6185 43.7558 16.5919 43.2558 16.6594C42.4767 16.7646 41.5769 17.7535 41.4716 18.4791" stroke="black" stroke-linecap="round"/>
<path d="M41.7167 17.2063C41.7672 16.858 41.5457 16.5879 41.3732 16.2939C41.1781 15.9613 40.6731 15.9622 40.3777 15.776C40.2081 15.6691 39.8497 15.6861 39.6513 15.6574C39.3573 15.6147 39.0908 15.5969 38.7977 15.5963C38.3658 15.5953 37.9136 15.6431 37.4949 15.7608C37.1074 15.8698 36.6521 15.9514 36.3215 16.1721C36.0012 16.386 35.6504 16.6193 35.3197 16.8133C34.7492 17.148 34.1746 18.2972 34.3867 18.9383" stroke="black" stroke-linecap="round"/>
<path d="M56.3027 31.4583C56.4284 31.2933 56.7129 31.4628 56.8634 31.3744C56.9282 31.3364 57.1062 31.3242 57.1929 31.2901C57.5098 31.1653 57.8349 31.0936 58.1105 30.8879C58.8912 30.305 59.6235 29.6836 60.0502 28.7933C60.8632 27.0975 60.0473 25.6433 59.2984 24.137C58.983 23.5027 58.3592 22.7475 57.7338 22.4162C57.5081 22.2967 57.1857 22.2474 56.9309 22.2105C56.6826 22.1744 56.4831 22.3109 56.2647 22.2922C55.8132 22.2536 55.3066 22.4593 54.8811 22.6268C54.4551 22.7945 54.2905 23.2227 53.848 23.3691" stroke="black" stroke-linecap="round"/>
<path d="M55.7334 21.8575C55.7628 21.7448 55.8827 21.473 55.9509 21.3834C56.05 21.2534 56.0862 21.0029 56.1186 20.8426C56.1949 20.4657 56.3291 20.1734 56.1177 19.8015C55.6853 19.041 54.9487 18.513 54.0377 18.581C53.6346 18.6111 53.3117 19.0263 53.1 19.3041C52.9232 19.5361 52.8424 19.9542 52.6375 20.1458C52.37 20.396 51.7686 21.8769 52.4447 21.975" stroke="black" stroke-linecap="round"/>
<path d="M49.0824 17.6807C48.685 17.0774 49.3627 16.712 49.8213 16.5058C50.534 16.1853 51.1935 16.2621 51.9492 16.3717C52.4839 16.4493 53.2206 16.7141 53.5477 17.1523C53.7721 17.4528 53.909 17.9374 53.5962 18.23C53.5047 18.3156 53.3367 18.5608 53.283 18.6803C53.2335 18.7904 53.0365 19.134 52.9378 19.192C52.793 19.2769 52.631 19.5498 52.537 19.6989C52.4009 19.915 52.2044 20.1028 52.0579 20.3134C51.8769 20.5737 51.3939 21.2092 51.0727 21.1817C50.9816 21.1739 50.8871 21.2143 50.773 21.1977C50.7091 21.1884 50.8937 21.2595 50.9244 21.2924C51.0263 21.4013 51.2583 21.4914 51.3048 21.6318" stroke="black" stroke-linecap="round"/>
<path d="M40.9624 15.4315C40.9588 15.4561 41.0005 15.1688 41.0131 15.082C41.0364 14.9216 41.1533 14.8238 41.1888 14.6911C41.2747 14.3695 41.6182 14.3295 41.8448 14.1782C42.5414 13.7132 43.5767 13.962 44.2327 14.3926C44.683 14.688 45.5222 15.427 44.8269 15.946C44.6211 16.0997 44.4224 16.1301 44.2212 16.2481C44.0979 16.3205 43.5997 16.4685 43.4618 16.4485C43.371 16.4354 43.1813 16.5092 43.0911 16.5435C42.9982 16.5788 42.7533 16.5511 42.6956 16.605C42.549 16.7421 41.9723 16.5893 41.7799 16.5614C41.2544 16.4851 40.6581 15.8888 40.7378 15.3394C40.7781 15.0618 40.6165 14.8299 40.8024 14.5755C40.9057 14.4341 41.0483 14.4835 41.1275 14.3847C41.2469 14.2358 41.4879 14.1604 41.5857 14.0051C41.9439 13.4367 43.1348 13.4546 43.5716 13.8472" stroke="black" stroke-linecap="round"/>
<path d="M48.8513 17.2309C49.1188 17.0056 49.3726 16.1442 49.2504 15.8017C49.086 15.3411 48.2733 14.8866 47.8035 14.8184C47.2642 14.7402 46.7416 14.5454 46.1892 14.4652C45.9634 14.4324 45.6505 14.537 45.5138 14.7241C45.3709 14.9198 45.27 15.2808 45.1145 15.4262C44.7229 15.7924 44.9191 16.2391 45.1832 16.5928C45.3326 16.7931 45.5098 17.0131 45.7388 17.1361C45.9345 17.2412 46.1192 17.5482 46.3322 17.5791C46.5365 17.6088 46.7474 17.7584 46.9852 17.7929C47.2279 17.8281 47.4707 17.8633 47.7134 17.8985C47.9893 17.9386 48.1006 17.914 48.3486 17.8255C48.5678 17.7473 48.64 17.3341 48.7432 17.1557" stroke="black" stroke-linecap="round"/>
<path d="M55.9312 19.269C56.134 18.8884 56.5583 18.5877 56.8242 18.2387C57.0174 17.9852 57.1131 17.6831 57.1592 17.3653C57.2694 16.6055 56.9502 15.7102 56.4366 15.1487C56.1121 14.7941 55.7274 14.3396 55.2218 14.2289C54.8006 14.1367 54.3492 13.8749 53.9272 14.041C53.5482 14.1902 53.089 14.587 52.9853 14.9751C52.8384 15.5244 52.6517 16.1417 52.8437 16.6795C53.0088 17.1422 53.463 17.4424 53.699 17.8446C53.9724 18.3105 54.5994 18.3332 54.9835 18.6259C55.1776 18.7738 55.549 18.9161 55.7987 18.9524C55.964 18.9764 56.0856 19.0637 56.2563 19.0783C56.3276 19.0844 56.433 18.8703 56.4733 18.8123" stroke="black" stroke-linecap="round"/>
<path d="M49.3123 15.6914C49.5561 15.7268 49.7586 16.0471 49.9861 16.1494C50.0943 16.198 50.2266 16.3524 50.3431 16.3763C50.5055 16.4097 50.6742 16.4244 50.8383 16.4482C50.9938 16.4708 51.4821 16.4062 51.6046 16.2917C51.7655 16.1412 52.0552 15.8728 52.2468 15.7603C52.4372 15.6486 52.6294 15.378 52.6602 15.166C52.6847 14.9974 52.6893 14.8679 52.6691 14.7179C52.6538 14.6046 52.5949 14.4296 52.6038 14.325C52.6403 13.898 52.3478 13.2633 51.9639 12.9962C51.7039 12.8154 51.408 12.7239 51.0881 12.6775C50.7908 12.6343 50.4693 12.4469 50.1672 12.4877C49.5955 12.5648 49.2046 13.1546 49.1295 13.6721C49.0794 14.0174 48.9043 14.2729 49.0353 14.64C49.1218 14.8824 49.2503 15.2217 49.3981 15.4196C49.6974 15.8207 49.9245 16.494 50.4926 16.5765" stroke="black" stroke-linecap="round"/>
<path d="M46.2184 14.0527C45.8635 14.0012 45.9659 13.0916 46.2238 12.877C46.4787 12.6649 46.6674 12.3235 47.0452 12.2725C47.4812 12.2136 47.8795 12.2118 48.3494 12.28C48.6154 12.3186 48.8504 12.516 49.0612 12.6807C49.2452 12.8244 49.2346 12.9439 49.3405 13.1244C49.5781 13.5292 49.253 13.9727 49.0272 14.2818C48.767 14.6379 48.0377 14.6435 47.6453 14.6728C47.4017 14.691 46.4694 14.6076 46.3467 14.3985C46.3179 14.3495 46.1575 14.2573 46.1024 14.2143C46.0124 14.144 46.0114 13.9818 46.0033 13.8727C45.9942 13.7507 45.9301 13.3391 45.8538 13.286" stroke="black" stroke-linecap="round"/>
<path d="M45.9893 12.3541C46.0038 11.619 45.2616 11.4752 44.6719 11.3897C44.3071 11.3367 44.0659 11.4727 43.7201 11.5952C43.3888 11.7125 43.2171 11.9981 42.9552 12.1518C42.7784 12.2555 42.8524 12.8212 42.9285 12.9509C43.0835 13.2152 43.3646 13.3611 43.5473 13.6058C44 14.2122 44.4049 14.4441 45.1353 14.5501C45.5299 14.6073 45.6442 14.4263 45.8392 14.1169C45.9201 13.9886 45.8447 13.8111 45.9585 13.7046C46.0178 13.6492 46.0487 13.3083 46.0378 13.227C46.0249 13.1317 45.7538 12.4491 45.7504 12.4516C45.6612 12.5182 45.8701 13.1752 45.8498 13.3154C45.7583 13.9458 44.9496 13.8093 44.4794 13.7411C44.1939 13.6996 43.9945 13.4923 43.7183 13.4522C43.5353 13.4256 43.215 13.1883 43.1573 13.0139" stroke="black" stroke-linecap="round"/>
<path d="M57.9565 22.1213C58.5745 22.211 58.797 21.9523 59.1484 21.4912C59.5339 20.9854 59.1778 20.4393 59.1098 19.9357C58.9604 18.8291 57.4336 18.0441 56.5514 18.7779C56.4142 18.8921 56.2243 19.2394 56.1546 19.3945C56.0512 19.6247 55.9042 19.8678 55.8672 20.1228C55.7832 20.7014 55.6956 21.0497 56.1139 21.497C56.3737 21.7748 56.8896 22.2044 57.2819 22.2613C57.5443 22.2994 57.8805 22.3445 58.1118 22.1901C58.2882 22.0723 58.3848 21.8687 58.5983 21.798" stroke="black" stroke-linecap="round"/>
<path d="M59.0265 18.6533C59.6577 18.7449 60.4394 17.996 60.6603 17.5044C60.7979 17.1983 61.4846 16.0341 61.2844 15.693C60.9956 15.2007 60.397 14.6058 59.825 14.5228C58.9449 14.3951 58.6595 14.3435 58.0197 14.8211C57.6795 15.0751 57.176 15.7963 57.0045 16.1777C56.6975 16.8609 56.62 17.3713 57.1667 17.9559C57.4893 18.3008 58.3617 18.6896 58.8127 18.755C59.7284 18.8879 59.7207 18.2999 60.4393 18.0622" stroke="black" stroke-linecap="round"/>
<path d="M57.251 15.343C57.6881 15.3517 58.1859 14.4124 58.4546 14.1612C58.6694 13.9603 58.8043 12.4891 58.7634 12.186C58.6471 11.3245 56.1293 10.2043 55.7406 11.0691C55.3777 11.8765 54.3007 13.4984 55.4105 14.3092C55.9206 14.6819 56.316 14.9419 56.9638 15.0359C57.2657 15.0798 57.6938 15.0988 57.9515 14.8844C58.1324 14.7339 58.2366 14.3983 58.4604 14.3242" stroke="black" stroke-linecap="round"/>
<path d="M51.7049 12.4149C50.9942 12.3118 51.2203 9.81488 52.2121 9.83448C52.9718 9.8495 54.7099 9.39288 54.8836 10.6793C54.9563 11.218 55.0453 11.6005 54.9184 12.2177C54.8492 12.554 54.3593 12.9738 54.0527 13.1537C53.626 13.404 53.0221 13.3 52.5204 13.1968C52.2452 13.1402 52.3925 12.9393 52.6172 13.2403C52.7484 13.416 52.8992 13.5938 52.9648 13.7921" stroke="black" stroke-linecap="round"/>
<path d="M49.1058 12.0384C49.4041 12.1161 49.8606 12.6419 50.2131 12.435C50.5091 12.2614 51.015 11.905 51.1529 11.5983C51.5643 10.6829 51.0341 10.0467 50.4766 9.45063C49.0594 7.93524 47.3055 11.9099 49.3469 12.2061" stroke="black" stroke-linecap="round"/>
<path d="M57.3555 10.0504C57.4933 9.10129 58.3904 8.47552 59.3552 8.61553C59.8575 8.68841 60.4309 8.49582 60.9254 8.71806C61.407 8.93453 61.5551 9.46702 61.7906 9.86836C62.1962 10.5597 61.7897 12.133 61.351 12.6945C60.8647 13.3169 59.8583 13.7312 59.0934 13.6202" stroke="black" stroke-linecap="round"/>
<path d="M57.7123 8.5096C57.8706 7.41889 57.132 7.49876 56.587 6.91608C56.0834 6.37751 54.8409 6.88281 54.3395 7.06174C53.7491 7.27241 53.0884 7.71709 52.9581 8.35048C52.8559 8.84725 53.8763 9.81074 54.3291 9.87645" stroke="black" stroke-linecap="round"/>
<path d="M25.9317 20.1155C25.273 19.2331 24.9556 18.7125 23.9052 18.5601C23.5478 18.5082 22.3022 18.1338 22.0395 18.3794C21.5926 18.7974 21.1161 19.0165 20.7494 19.5436C20.4571 19.9639 20.2562 20.581 19.9114 20.9035C19.6179 21.178 19.517 22.1041 19.4582 22.5094C19.3603 23.1839 19.4889 23.5606 19.5694 24.1572C19.7183 25.2602 20.8374 25.8328 21.9103 25.4778" stroke="black" stroke-linecap="round"/>
<path d="M19.1377 24.7146C19.1924 23.6938 18.0656 23.8383 17.2991 23.7271C16.6167 23.628 16.2751 24.3061 15.7394 24.5418C14.5753 25.0539 14.3065 26.6079 13.7238 27.5326C12.6386 29.2545 15.3638 33.771 16.8781 31.594" stroke="black" stroke-linecap="round"/>
<path d="M26.6195 29.3116C26.4947 29.7653 25.5412 29.9367 25.1841 30.0087C24.624 30.1216 23.6375 30.0783 23.0926 29.8269C21.7232 29.1953 21.0183 28.4939 20.7557 27.0311" stroke="black" stroke-linecap="round"/>
<path d="M19.3099 29.1086C19.5753 29.1139 19.8764 28.6495 20.1099 28.5576C20.4811 28.4114 21.1134 28.2121 21.4386 28.5598C21.6457 28.7812 21.9606 28.9184 22.1405 29.1593C22.3557 29.4477 22.7086 29.7756 22.9923 30.003C23.5853 30.4785 23.6019 31.4277 23.6501 32.0734C23.6735 32.3859 23.5021 33.0024 23.6861 33.2488C23.9989 33.6678 24.2909 33.0605 24.5246 32.7245C24.7727 32.3679 24.9661 31.9821 25.2324 31.6412C25.3025 31.5516 25.9333 30.9564 25.8558 30.9216C25.4854 30.7551 25.1355 30.9553 24.8452 31.172C24.7258 31.2612 24.5615 31.377 24.4135 31.3741C24.2447 31.3708 24.2349 31.7652 24.1406 31.4298C24.0752 31.197 23.9916 30.3598 24.4089 30.4204C24.6046 30.4488 25.4849 30.715 25.5689 30.6364C25.6319 30.5774 26.0377 30.447 25.8722 30.5163C25.5889 30.6348 25.3676 30.9115 25.121 31.0956C24.9704 31.208 24.262 31.7612 24.2659 31.7339" stroke="black" stroke-linecap="round"/>
<path d="M20.2059 28.1897C20.2425 27.9373 20.4643 27.7225 20.5009 27.4701" stroke="black" stroke-linecap="round"/>
<path d="M13.5925 29.0388C12.451 28.8731 10.7481 30.0202 10.5735 31.2232C10.4576 32.0222 10.2023 32.2031 10.7637 32.9551C11.2051 33.5464 12.0037 34.0454 12.7592 33.6862" stroke="black" stroke-linecap="round"/>
<path d="M10.7378 32.2806C9.56125 32.1098 7.07156 33.6412 7.51862 34.9923C7.89957 36.1437 8.53933 38.2688 10.1028 37.7515" stroke="black" stroke-linecap="round"/>
<path d="M8.4152 36.2347C7.79548 36.1448 6.32114 36.6876 5.83295 37.052C5.09585 37.6023 4.47307 38.2084 4.3379 39.1398C4.2673 39.6263 4.81296 41.0816 5.21172 41.3329C5.46012 41.4894 5.44048 41.8429 5.76661 41.8902C6.04144 41.9301 6.27026 42.1222 6.60018 42.1701" stroke="black" stroke-linecap="round"/>
<path d="M5.2229 41.8108C4.63581 41.7992 4.30381 43.7631 4.23879 44.2111C4.07788 45.3199 4.14475 46.3163 4.8327 47.2378C5.46806 48.0888 5.36196 48.6656 6.50867 48.832C7.32491 48.9505 7.93996 48.4469 8.47955 47.8465" stroke="black" stroke-linecap="round"/>
<path d="M6.54283 48.0428C5.9018 48.0213 5.26645 49.2893 4.99183 49.7251C4.55506 50.4181 4.43782 51.6723 5.14955 52.1674C6.49204 53.1012 8.30329 53.8888 9.42532 52.2758" stroke="black" stroke-linecap="round"/>
<path d="M7.15537 52.5827C6.18479 53.4003 5.49742 55.6144 5.83225 56.8323C6.18596 58.1189 6.75282 58.7231 8.06451 58.9135C10.004 59.1949 11.9236 58.0598 12.1971 56.1754" stroke="black" stroke-linecap="round"/>
<path d="M9.12204 58.7484C9.0279 59.3972 8.9663 59.8102 9.36314 60.3729C9.79674 60.9877 10.2703 62.0948 11.0531 62.3577C12.1163 62.7147 13.9419 63.0406 14.9942 62.338C15.469 62.021 16.1049 61.8863 16.4892 61.407C16.6933 61.1525 17.0953 60.7349 17.3598 60.5797C17.7835 60.3311 18.4266 58.3654 18.6879 58.5472" stroke="black" stroke-linecap="round"/>
<path d="M14.3617 63.1651C14.3485 63.5587 14.5797 64.031 14.8201 64.3266C15.5167 65.1828 16.2843 66.2758 17.3396 66.7408C18.3262 67.1756 19.5342 67.6081 20.6205 67.3759C22.0211 67.0765 22.736 65.6985 22.9233 64.4076" stroke="black" stroke-linecap="round"/>
<path d="M21.0706 67.3174C21.4889 67.8778 22.1665 68.582 22.8369 68.8365C23.6457 69.1435 24.3315 68.8534 25.0914 68.6957C25.8486 68.5385 26.4197 68.1157 26.7995 67.513C26.9767 67.2319 27.3226 66.0964 27.1465 65.974" stroke="black" stroke-linecap="round"/>
<path d="M26.1853 68.218C26.1433 69.1614 27.0193 69.4932 27.6817 69.954C28.812 70.7402 30.0701 71.1998 31.4204 71.512C33.2148 71.927 34.4412 71.5937 35.1341 69.8346C35.8415 68.0386 35.5258 66.2161 34.9802 64.5671" stroke="black" stroke-linecap="round"/>
<path d="M35.3048 68.9054C36.8121 69.1241 40.056 68.1797 40.9695 66.8664C41.4278 66.2076 41.6384 65.7863 41.7535 64.9934C41.8099 64.6044 40.9975 63.0206 41.2575 62.9346" stroke="black" stroke-linecap="round"/>
<path d="M41.6745 65.5386C42.5664 65.668 43.1981 65.3259 44.0446 65.0878C44.9383 64.8365 45.2779 64.804 45.4154 63.8563C45.5902 62.6523 46.2062 60.8463 45.6914 59.7638" stroke="black" stroke-linecap="round"/>
<path d="M35.6367 15.9452C34.5057 15.3602 33.6474 14.3159 32.4738 15.1921C31.7065 15.7649 31.4436 16.3371 31.3036 17.3018" stroke="black" stroke-linecap="round"/>
<path d="M31.4689 16.1681C31.6373 15.0079 29.914 14.5884 29.2605 15.4248C28.6127 16.254 28.5235 17.0836 28.3616 18.1989" stroke="black" stroke-linecap="round"/>
<path d="M34.9909 14.6938C35.2488 12.9167 37.5836 12.4229 39.1749 12.6538C39.7306 12.7345 41.0044 12.7571 41.1078 13.5226C41.2561 14.6216 40.4475 14.6712 40.0375 15.2607" stroke="black" stroke-linecap="round"/>
<path d="M17.3893 66.987C17.2304 68.0822 17.9146 69.5062 18.956 69.9743C20.0071 70.4467 22.0429 70.7036 22.2783 69.0813" stroke="black" stroke-linecap="round"/>
<path d="M14.9228 64.8981C13.5998 64.7061 11.255 65.1233 11.5595 63.0252" stroke="black" stroke-linecap="round"/>
<path d="M4.75437 51.4788C3.63187 52.4244 3.88261 54.6412 5.47363 54.8721" stroke="black" stroke-linecap="round"/>
<path d="M4.40925 53.8523C2.28231 55.4401 5.56363 59.7057 6.74999 58.0001" stroke="black" stroke-linecap="round"/>
<path d="M13.5425 64.8715C11.9111 64.6348 13.7136 67.6956 14.2111 68.0843C14.8654 68.5956 16.9015 70.6412 17.7235 69.4595" stroke="black" stroke-linecap="round"/>
<path d="M9.14333 60.5981C8.643 61.0195 8.27525 60.9506 7.68323 61.1171C7.36312 61.2071 6.00592 61.2247 5.81158 60.8935C5.65705 60.6302 5.07886 60.2471 4.82035 59.9707C4.50043 59.6287 4.73296 58.7434 4.42382 58.5284" stroke="black" stroke-linecap="round"/>
<path d="M21.0037 70.301C21.0539 70.6014 21.2427 70.9707 21.4989 71.166C21.7644 71.3684 21.9952 71.8012 22.3251 71.8894C22.6713 71.982 22.9521 72.2908 23.3449 72.3478C23.7057 72.4002 24.0474 72.5273 24.4357 72.5837C25.8258 72.7854 27.1324 71.9132 27.3343 70.5214" stroke="black" stroke-linecap="round"/>
</svg>
